<svg xmlns="http://www.w3.org/2000/svg" width="256" height="256" viewBox="0 0 256 256"><g transform="translate(-373.642 -318.344)"><path fill="#1D8CB5" d="M583.66 328.85H419.624c-19.6 0-35.487 15.887-35.487 35.486V528.35c0 19.6 15.888 35.487 35.487 35.487h164.033c19.6 0 35.487-15.888 35.487-35.486V364.338c0-19.6-15.888-35.488-35.486-35.488z"/><linearGradient id="a" gradientUnits="userSpaceOnUse" x1="-808.873" y1="199.892" x2="-860.569" y2="49.203" gradientTransform="matrix(-.592 0 0 -.592 -34.542 412.545)"><stop offset="0" stop-color="#fff"/><stop offset="1" stop-color="#fff" stop-opacity="0"/></linearGradient><path opacity=".781" fill="url(#a)" enable-background="new" d="M557.056 338.895h-110.83c-29.336 0-52.954 23.81-52.954 53.385v108.127c.95 23.087 4.603 8.49 11.555-17.075 8.08-29.713 34.396-55.682 66.445-75.145 24.46-14.855 51.84-24.34 101.68-25.244 28.264-.51 25.77-36.683-15.896-44.048z"/></g><g fill="#fff"><path d="M81.623 207.78V101.49H46.298v106.29h35.325zM119.71-532.13c12.31 0 19.983-8.163 19.983-18.364-.228-10.426-7.674-18.362-19.753-18.362-12.09 0-19.988 7.936-19.988 18.363 0 10.202 7.664 18.365 19.523 18.365h.234z"/><path d="M101.174 207.78h35.332v-59.357c0-3.178.23-6.353 1.164-8.623 2.548-6.35 8.365-12.922 18.122-12.922 12.786 0 17.896 9.75 17.896 24.036v56.865h35.325V146.83c0-32.647-17.425-47.838-40.672-47.838-19.055 0-27.425 10.65-32.073 17.905h.24v-15.41h-35.333c.47 9.972 0 106.29 0 106.29z"/></g></svg>